<?xml version="1.0" encoding="UTF-8" standalone="no"?>
<!DOCTYPE svg PUBLIC "-//W3C//DTD SVG 1.1//EN" "http://www.w3.org/Graphics/SVG/1.1/DTD/svg11.dtd">
<!-- Created with Vectornator (http://vectornator.io/) -->
<svg stroke-miterlimit="10" style="fill-rule:nonzero;clip-rule:evenodd;stroke-linecap:round;stroke-linejoin:round;" version="1.1" viewBox="0 0 788.705 501.223" xml:space="preserve" xmlns="http://www.w3.org/2000/svg" xmlns:xlink="http://www.w3.org/1999/xlink">
<defs/>
<g id="Layer-1">
<g opacity="1">
<path d="M775.389 224.088C751.321 206.311 734.961 193.451 708.33 179.81C670.142 160.248 626.84 151.657 589.194 131.069C573.823 122.663 562.013 108.384 551.754 94.1826C543.568 82.8502 540.472 68.6006 534.83 55.8096C535.85 69.9758 535.355 84.3331 537.888 98.3083C540.219 111.168 545.516 123.309 549.33 135.81C536.14 136.203 522.866 135.463 509.758 136.99C492.358 139.018 464.392 150.671 444.284 143.608C431.702 139.188 419.42 133.229 408.74 125.242C393.853 114.11 381.8 99.6205 368.33 86.8096C375.321 100.987 380.306 116.344 389.304 129.34C398.499 142.623 411.321 152.987 422.33 164.81C383.246 189.472 344.622 215.91 311.597 248.238C285.077 274.198 259.025 300.841 235.83 329.81C232.862 333.517 235.212 339.287 234.903 344.026C271.68 326.491 298.448 292.956 328.83 265.81C346.193 283.011 361.468 302.613 380.917 317.413C396.793 329.495 414.868 339.045 433.703 345.618C455.174 353.11 477.861 357.907 500.567 359.165C523.274 360.423 546.249 357.681 568.523 353.089C586.415 349.4 603.642 342.478 620.086 334.521C634.684 327.457 648.709 318.804 661.07 308.307C686.188 286.977 703.938 257.676 719.83 228.81C741.558 243.531 765.836 240.933 786.854 256.649" fill="#454446" fill-rule="nonzero" opacity="1" stroke="none"/>
<path d="M719.33 227.81C710.741 243.149 704.233 259.856 693.562 273.828C682.107 288.828 668.24 302.034 653.574 313.913C590.06 365.357 479.066 374.636 407.843 333.631C374.855 314.638 353.708 292.964 329.332 264.655C288.831 300.982 288.831 300.982 248.33 337.31C268.534 377.355 290.622 411.356 326.83 439.31C409.271 502.955 534.141 509.162 619.185 446.589C676.982 404.063 714.999 346.186 726.743 274.99C728.893 261.956 731.081 248.475 729.031 235.425C728.393 231.364 722.564 230.348 719.33 227.81Z" fill="#f6d298" fill-rule="nonzero" opacity="1" stroke="none"/>
<path d="M329.33 109.81C341.898 147.396 336.546 163.212 324.33 200.31C339.004 200.549 354.034 204.252 368.351 201.026C376.424 199.207 381.162 190.499 388.074 185.946C399.516 178.408 411.578 171.855 423.33 164.81C413.244 154.534 402.191 145.125 393.072 133.983C383.168 121.882 378.32 106.04 372.83 91.8096C399.232 121.354 429.983 150.694 473.556 146.404C485.885 145.191 497.542 139.883 509.83 138.31C523.265 136.589 536.894 137.143 550.426 136.559C543.586 113.165 538.514 89.0853 536.33 64.8096C540.484 74.4384 547.536 95.1166 556.591 104.031C573.678 120.852 593.198 136.859 615.789 144.893C633.291 151.118 651.866 154.236 669.054 161.281C685.689 168.1 700.905 177.967 716.83 186.31C717.33 185.81 718.587 185.468 718.33 184.81C711.597 167.548 705.032 150.121 696.334 133.761C673.006 89.8856 635.733 53.0988 591.49 30.713C510.991-10.0175 416.156-3.6766 340.094 44.0873C327.571 51.951 316.015 61.4753 305.565 71.9375C268.845 108.702 248.627 151.333 233.183 199.981C255.732 200.091 278.287 200.843 300.83 200.31C302.032 200.281 303.272 199.374 303.83 198.31C310.469 185.657 318.243 173.31 322.199 159.581C326.839 143.476 326.953 126.4 329.33 109.81Z" fill="#b7afcf" fill-rule="nonzero" opacity="1" stroke="none"/>
<path d="M4.83047 117.31C-2.65669 116.495 16.2613 127.14 21.5955 132.457C27.6501 138.492 33.069 145.21 37.8305 152.31C45.5229 163.78 51.3998 176.386 58.8538 188.012C69.1583 204.085 78.7663 217.319 93.3868 229.456C104.011 238.276 116.658 243.566 130.33 244.81C212.418 252.274 237.222 116.904 155.987 107.858C146.831 106.839 137.484 105.984 128.356 107.229C85.0173 113.14 49.5631 122.179 4.83047 117.31Z" fill="#c8d9ba" fill-rule="nonzero" opacity="1" stroke="none"/>
<path d="M691.83 215.31C685.829 208.279 680.75 200.072 669.83 199.31C640.736 197.278 611.501 199.465 582.336 199.543C587.751 214.845 592.441 231.025 592.085 247.254C590.863 302.963 530.733 339.882 479.115 326.831C446.318 318.538 423.89 292.207 414.764 260.346C408.636 238.953 415.1 219.653 422.33 199.81C421.83 199.476 421.354 198.514 420.83 198.81C407.393 206.398 394.061 214.236 381.332 222.962C368.798 231.554 357.062 241.262 345.145 250.693C342.822 252.532 338.119 256.032 340.237 258.104C361.849 279.256 385.051 299.425 411.174 314.658C435.326 328.741 465.115 335.019 492.426 337.907C555.71 344.602 613.732 310.278 656.33 266.81C671.215 251.621 680.631 233.29 691.83 215.31Z" fill="#f6d298" fill-rule="nonzero" opacity="1" stroke="none"/>
<path d="M39.3305 416.31C50.1414 425.452 67.4329 412.432 81.5839 411.976C100.163 411.376 118.8 414.507 137.339 413.147C144.837 412.598 152.404 410.21 158.83 406.31C180.203 393.338 200.134 366.028 195.879 339.564C189.23 298.203 140.482 273.778 106.463 302.88C80.8964 324.751 71.0287 360.179 55.826 390.194C51.1735 399.379 31.4684 409.661 39.3305 416.31Z" fill="#c8d9ba" fill-rule="nonzero" opacity="1" stroke="none"/>
<path d="M328.33 107.31C324.106 118.338 328.431 129.321 325.969 141.176C318.246 178.36 295.838 215.614 271.33 243.81C242.311 230.068 223.489 220.754 200.83 199.31C196.861 204.11 195.022 208.458 200.911 213.581C209.432 220.993 218.66 227.567 227.891 234.073C238.644 241.651 249.851 248.564 260.83 255.81C257.898 260.043 252.549 269.623 246.83 272.31C229.409 280.493 214.431 281.07 201.367 294.002C187.048 308.178 201.701 334.179 221.322 325.794C239.643 317.965 243.652 298.625 255.812 284.412C291.875 242.261 330.667 208.831 338.33 150.81C340.367 135.391 337.734 119.573 328.33 107.31Z" fill="#c8d9ba" fill-rule="nonzero" opacity="1" stroke="none"/>
<path d="M499.83 207.31C452.51 212.481 465.631 273.746 509.316 272.145C514.184 271.966 518.025 267.751 522.166 265.186C549.713 248.126 529.12 204.109 499.83 207.31Z" fill="#c8d9ba" fill-rule="nonzero" opacity="1" stroke="none"/>
<path d="M243.33 323.81C254.985 313.233 264.545 297.314 275.522 285.934C305.508 254.847 334.186 226.877 368.33 200.81C365.002 198.898 365.15 198.598 360.076 198.521C349.923 198.367 339.764 198.543 329.615 198.874C317.969 199.255 313.18 215.567 306.586 225.174C303.517 229.645 300.313 234.048 296.721 238.111C282.432 254.272 267.04 269.445 252.979 285.804C240.173 300.704 234.553 306.986 243.33 323.81Z" fill="#f6d298" fill-rule="nonzero" opacity="1" stroke="none"/>
<path d="M560.739 174.637C563.98 179.306 569.244 182.236 572.906 186.582C576.572 190.932 576.919 199.055 582.33 200.81C593.428 204.409 605.663 201.055 617.33 200.988C634.831 200.888 652.33 200.536 669.83 200.31C660.223 189.198 649.069 187.321 635.89 181.986C619.256 175.253 603.848 166.838 585.33 165.81C577.848 165.394 565.952 168.944 560.739 174.637Z" fill="#b7afcf" fill-rule="nonzero" opacity="1" stroke="none"/>
<path d="M226.33 220.81C231.466 224.806 266.358 246.679 271.33 244.81C273.949 243.825 276.349 238.22 277.33 236.81C282.776 228.981 288.72 221.501 294.035 213.583C296.894 209.323 299.232 204.734 301.83 200.31C278.997 199.976 256.157 198.667 233.33 199.31C229.924 199.405 228.86 215.752 226.33 220.81Z" fill="#f6d298" fill-rule="nonzero" opacity="1" stroke="none"/>
<path d="M227.33 232.31C222.231 243.836 225.098 267.743 230.83 279.31C235.971 277.12 241.206 275.143 246.251 272.742C281.627 255.908 243.027 243.634 227.33 232.31Z" fill="#f6d298" fill-rule="nonzero" opacity="1" stroke="none"/>
</g>
</g>
</svg>
